<?xml version="1.0" encoding="utf-8"?>
<!-- Generator: Adobe Illustrator 17.0.0, SVG Export Plug-In . SVG Version: 6.00 Build 0)  -->
<!DOCTYPE svg PUBLIC "-//W3C//DTD SVG 1.1//EN" "http://www.w3.org/Graphics/SVG/1.1/DTD/svg11.dtd">
<svg version="1.1" id="Livello_1" xmlns="http://www.w3.org/2000/svg" xmlns:xlink="http://www.w3.org/1999/xlink" x="0px" y="0px"
	 width="500px" height="500px" viewBox="0 0 500 500" enable-background="new 0 0 500 500" xml:space="preserve">
<g>
	<g>
		<path fill="#FFCC00" d="M249.506,336.959c-12.06,0-23.912-3.196-34.276-9.241c-4.462-2.602-5.97-8.33-3.367-12.793
			c2.604-4.461,8.331-5.97,12.793-3.367c7.506,4.377,16.099,6.691,24.85,6.691c8.751,0,17.344-2.314,24.852-6.694
			c4.465-2.601,10.19-1.093,12.794,3.368c2.602,4.464,1.095,10.191-3.368,12.794C273.417,333.763,261.564,336.959,249.506,336.959z"
			/>
	</g>
	<path fill="#FFCC00" d="M395.476,238.137c-0.36,0-0.714,0.023-1.065,0.054c-5.647-31.925-33.509-56.18-67.054-56.18
		c-37.621,0-68.119,30.498-68.119,68.119s30.498,68.119,68.119,68.119c33.545,0,61.407-24.255,67.054-56.18
		c0.352,0.031,0.705,0.054,1.065,0.054c6.623,0,11.993-5.369,11.993-11.993C407.469,243.507,402.099,238.137,395.476,238.137z
		 M327.356,299.54c-27.245,0-49.41-22.165-49.41-49.41c0-27.245,22.165-49.41,49.41-49.41c27.245,0,49.41,22.165,49.41,49.41
		C376.767,277.375,354.601,299.54,327.356,299.54z"/>
	<g>
		<path fill="#FFCC00" d="M296.655,259.485c-5.167,0-9.355-4.188-9.355-9.355c0-22.087,17.969-40.057,40.056-40.057
			c5.167,0,9.355,4.188,9.355,9.355s-4.188,9.355-9.355,9.355c-11.771,0-21.347,9.577-21.347,21.348
			C306.009,255.297,301.821,259.485,296.655,259.485z"/>
	</g>
	<path fill="#FFCC00" d="M443.756,219.257c-1.277,0-2.534,0.087-3.77,0.238C426.262,164.703,376.611,124,317.626,124h-56.892
		v-13.713c11.4-4.483,19.474-15.582,19.474-28.574c0-16.956-13.746-30.702-30.702-30.702s-30.702,13.746-30.702,30.702
		c0,12.992,8.074,24.091,19.474,28.574V124h-56.892c-58.984,0-108.634,40.701-122.359,95.491c-1.236-0.152-2.494-0.234-3.771-0.234
		c-16.956,0-30.702,13.746-30.702,30.702s13.746,30.702,30.702,30.702c1.25,0,2.474-0.1,3.684-0.246
		c13.599,54.969,63.335,95.846,122.445,95.846h136.239c59.104,0,108.836-40.868,122.441-95.827c1.21,0.145,2.44,0.227,3.689,0.227
		c16.956,0,30.702-13.746,30.702-30.702S460.712,219.257,443.756,219.257z M249.506,69.72c6.623,0,11.993,5.369,11.993,11.993
		c0,6.623-5.369,11.993-11.993,11.993c-6.623,0-11.993-5.369-11.993-11.993C237.514,75.089,242.883,69.72,249.506,69.72z
		 M55.813,261.929c-0.185,0.009-0.369,0.022-0.556,0.022c-6.623,0-11.993-5.369-11.993-11.993c0-6.623,5.369-11.993,11.993-11.993
		c0.199,0,0.389,0.031,0.585,0.041c-0.382,3.991-0.585,8.034-0.585,12.124C55.257,254.11,55.451,258.044,55.813,261.929z
		 M317.626,357.552H181.387c-59.232,0-107.422-48.189-107.422-107.421s48.189-107.421,107.422-107.421h136.239
		c59.232,0,107.421,48.189,107.421,107.421S376.858,357.552,317.626,357.552z M443.756,261.951c-0.188,0-0.368-0.032-0.555-0.041
		c0.361-3.88,0.555-7.808,0.555-11.78c0-4.094-0.203-8.142-0.587-12.138c0.195-0.01,0.389-0.027,0.587-0.027
		c6.623,0,11.993,5.369,11.993,11.993C455.749,256.582,450.38,261.951,443.756,261.951z"/>
	<circle fill="#FFCC00" cx="171.655" cy="250.302" r="30.416"/>
</g>
</svg>
