<?xml version="1.0" encoding="utf-8"?>
<!DOCTYPE svg PUBLIC "-//W3C//DTD SVG 1.1//EN" "http://www.w3.org/Graphics/SVG/1.1/DTD/svg11.dtd">
<svg xmlns="http://www.w3.org/2000/svg" viewBox="0 0 32 32">
    <path fill="#333" d="M24.522,1c-1.731,0-3.358,0.674-4.581,1.897l-6.198,6.198c-1.224,1.224-1.897,2.85-1.897,4.581 c0,1.731,0.674,3.358,1.897,4.581c0.195,0.195,0.451,0.293,0.707,0.293s0.512-0.098,0.707-0.293c0.391-0.391,0.391-1.024,0-1.414 c-0.846-0.846-1.312-1.97-1.312-3.167s0.466-2.321,1.312-3.167l6.198-6.198C22.201,3.466,23.326,3,24.522,3 s2.321,0.466,3.167,1.312C28.534,5.158,29,6.282,29,7.478c0,1.196-0.466,2.321-1.312,3.167l-6.198,6.198 c-0.391,0.391-0.391,1.023,0,1.414s1.023,0.391,1.414,0l6.198-6.198C30.326,10.835,31,9.208,31,7.478 c0-1.73-0.674-3.356-1.897-4.581C27.879,1.674,26.252,1,24.522,1z"></path>
    <path fill="#333" d="M16.842,13.744c-0.391,0.391-0.391,1.024,0,1.414c0.846,0.846,1.312,1.97,1.312,3.167 s-0.466,2.321-1.312,3.167l-6.198,6.198C9.799,28.534,8.674,29,7.478,29s-2.321-0.466-3.167-1.312C3.466,26.842,3,25.718,3,24.522 c0-1.196,0.466-2.321,1.312-3.167l6.198-6.198c0.391-0.391,0.391-1.023,0-1.414s-1.023-0.391-1.414,0l-6.198,6.198 C1.674,21.165,1,22.792,1,24.522c0,1.73,0.674,3.356,1.897,4.581C4.121,30.326,5.748,31,7.478,31c1.731,0,3.358-0.674,4.581-1.897 l6.198-6.198c1.224-1.224,1.897-2.85,1.897-4.581c0-1.731-0.674-3.358-1.897-4.581C17.866,13.353,17.232,13.353,16.842,13.744z"></path>
</svg>
